<?xml version="1.0" standalone="no"?>
<!DOCTYPE svg PUBLIC "-//W3C//DTD SVG 20010904//EN"
 "http://www.w3.org/TR/2001/REC-SVG-20010904/DTD/svg10.dtd">
<svg version="1.0" xmlns="http://www.w3.org/2000/svg"
 width="1280.000000pt" height="1122.000000pt" viewBox="0 0 1280.000000 1122.000000"
 preserveAspectRatio="xMidYMid meet">
<metadata>
Created by potrace 1.15, written by Peter Selinger 2001-2017
</metadata>
<g transform="translate(0.000000,1122.000000) scale(0.100000,-0.100000)"
fill="#000000" stroke="none">
<path d="M3350 11208 c-19 -5 -757 -422 -1639 -926 -1482 -847 -1607 -921
-1642 -965 -74 -93 -69 29 -69 -1752 0 -1761 -4 -1655 61 -1744 26 -35 284
-211 1398 -954 751 -501 1384 -918 1406 -928 22 -9 61 -20 87 -24 l47 -7 3
-942 3 -941 23 -49 c12 -28 34 -64 47 -82 15 -19 569 -395 1402 -951 1490
-995 1420 -952 1539 -940 29 3 75 16 101 30 26 13 748 424 1603 913 927 529
1572 904 1597 927 23 21 52 60 65 85 l23 47 5 953 5 953 55 22 c31 13 764 428
1630 922 1090 623 1586 912 1612 938 20 21 47 59 60 85 l23 47 3 1620 c3 1788
6 1678 -61 1767 -25 34 -296 219 -1347 921 -723 483 -1347 898 -1387 923 -89
56 -166 73 -246 55 -41 -9 -434 -229 -1643 -921 -874 -500 -1606 -922 -1626
-939 -20 -17 -47 -53 -60 -80 -13 -28 -25 -50 -28 -51 -4 0 -11 15 -18 33 -6
17 -26 49 -43 70 -42 51 -2742 1854 -2814 1879 -55 19 -121 22 -175 6z"/>
</g>
</svg>
